<svg xmlns="http://www.w3.org/2000/svg" width="59.072" height="26.388" viewBox="0 0 59.072 26.388" class="infinity-icon">
    <defs>
        <linearGradient id="grad-infinity-1" x1="0" y1="0" x2="1" y2="0">
          <stop offset="0%" stop-color="#705bff" />
          <stop offset="33%" stop-color="#322c7e" />
          <stop offset="67%" stop-color="#7881da" />
          <stop offset="100%" stop-color="#52dfac" />
        </linearGradient>
        <linearGradient id="grad-infinity-2" x1="1" y1="0" x2="0" y2="0">
          <stop offset="0%" stop-color="#e23838" />
          <stop offset="33%" stop-color="#973999" />
          <stop offset="67%" stop-color="#009cdf" />
          <stop offset="100%" stop-color="#5ebd3e" />
        </linearGradient>
    </defs>
    <path class="infinity-path infinity-path-1" stroke="url(#grad-infinity-1)" d="M281.3,267.819a11.944,11.944,0,0,1,0-23.888c10.85,0,21.834,23.888,32.684,23.888a11.944,11.944,0,0,0,0-23.888C303.171,243.931,292.109,267.819,281.3,267.819Z" transform="translate(-268.104 -242.681)" />
    <path class="infinity-path infinity-path-2" stroke="url(#grad-infinity-2)" d="M281.3,267.819a11.944,11.944,0,0,1,0-23.888c10.85,0,21.834,23.888,32.684,23.888a11.944,11.944,0,0,0,0-23.888C303.171,243.931,292.109,267.819,281.3,267.819Z" transform="translate(-268.104 -242.681)" />
</svg>
